<svg width="23" height="23" viewBox="0 0 23 23" fill="none" xmlns="http://www.w3.org/2000/svg">
<g clip-path="url(#clip0_3_5)">
<path d="M11.5 1.91666C13.025 1.91666 14.4876 2.52246 15.5659 3.60079C16.6442 4.67913 17.25 6.14166 17.25 7.66666V8.62499H21.0834V10.5417H19.965L19.2395 19.2462C19.2196 19.4857 19.1104 19.7089 18.9336 19.8717C18.7568 20.0345 18.5253 20.1249 18.285 20.125H4.71502C4.47471 20.1249 4.24323 20.0345 4.06644 19.8717C3.88965 19.7089 3.78047 19.4857 3.76052 19.2462L3.0341 10.5417H1.91669V8.62499H5.75002V7.66666C5.75002 6.14166 6.35582 4.67913 7.43416 3.60079C8.51249 2.52246 9.97503 1.91666 11.5 1.91666ZM18.0416 10.5417H4.95748L5.59669 18.2083H17.4024L18.0416 10.5417ZM12.4584 12.4583V16.2917H10.5417V12.4583H12.4584ZM8.62502 12.4583V16.2917H6.70835V12.4583H8.62502ZM16.2917 12.4583V16.2917H14.375V12.4583H16.2917ZM11.5 3.83332C10.5165 3.83332 9.57068 4.21132 8.85808 4.88914C8.14547 5.56696 7.72065 6.49274 7.67148 7.47499L7.66669 7.66666V8.62499H15.3334V7.66666C15.3334 6.68317 14.9554 5.73731 14.2775 5.02471C13.5997 4.31211 12.6739 3.88729 11.6917 3.83811L11.5 3.83332Z" fill="#212121"/>
</g>
<defs>
<clipPath id="clip0_3_5">
<rect width="23" height="23" fill="white"/>
</clipPath>
</defs>
</svg>
