<svg width="30" height="30" viewBox="0 0 30 30" fill="none" xmlns="http://www.w3.org/2000/svg">
<rect x="0.5" y="0.5" width="29" height="29" rx="6.5" fill="white" stroke="#F8F8F8"/>
<g clip-path="url(#clip0_17_2)">
<path d="M19.8956 10.5638C19.125 9.825 17.9212 9.4575 16.8225 9.62906C16.0312 9.75 15.3909 10.1494 15.0066 10.7513C14.6316 10.1391 14.0109 9.735 13.2319 9.60563C12.1434 9.42656 10.8881 9.81094 10.1034 10.5628C9.75684 10.8949 9.48055 11.2932 9.29099 11.7342C9.10143 12.1751 9.00247 12.6497 9 13.1297C8.99433 13.6276 9.08884 14.1215 9.27792 14.5821C9.467 15.0427 9.74678 15.4606 10.1006 15.8109L14.5312 20.2444C14.5923 20.3059 14.6648 20.3547 14.7448 20.388C14.8248 20.4213 14.9106 20.4385 14.9972 20.4385C15.0838 20.4385 15.1696 20.4213 15.2496 20.388C15.3295 20.3547 15.4021 20.3059 15.4631 20.2444L19.8966 15.81C20.2508 15.46 20.531 15.0424 20.7206 14.582C20.9102 14.1215 21.0052 13.6276 21 13.1297C20.9973 12.6498 20.8981 12.1754 20.7084 11.7346C20.5187 11.2938 20.2423 10.8956 19.8956 10.5638V10.5638ZM19.5 15.4125L15.0684 19.8469C15.0597 19.8562 15.0491 19.8637 15.0373 19.8688C15.0255 19.8739 15.0128 19.8766 15 19.8766C14.9872 19.8766 14.9745 19.8739 14.9627 19.8688C14.9509 19.8637 14.9403 19.8562 14.9316 19.8469L10.5 15.4125C10.1991 15.1152 9.961 14.7603 9.79994 14.3691C9.63889 13.9779 9.55814 13.5583 9.5625 13.1353C9.56463 12.7302 9.64823 12.3296 9.80832 11.9574C9.96841 11.5852 10.2017 11.249 10.4944 10.9688C11.0466 10.4372 11.88 10.125 12.6778 10.125C12.8329 10.1249 12.9878 10.1374 13.1409 10.1625C13.6097 10.2394 14.235 10.4738 14.5866 11.1525C14.6261 11.2283 14.6854 11.292 14.7582 11.3369C14.8309 11.3818 14.9145 11.4062 15 11.4075V11.4075C15.0833 11.4077 15.1652 11.3853 15.2368 11.3427C15.3085 11.3001 15.3672 11.2389 15.4069 11.1656V11.1656C15.7716 10.4906 16.4212 10.26 16.9012 10.185C17.8172 10.0425 18.8606 10.3575 19.4981 10.9697C19.792 11.2491 20.0267 11.5849 20.188 11.957C20.3494 12.329 20.4343 12.7298 20.4375 13.1353C20.4419 13.5583 20.3611 13.9779 20.2001 14.3691C20.039 14.7603 19.8009 15.1152 19.5 15.4125V15.4125Z" fill="#E1E1E1"/>
</g>
<defs>
<clipPath id="clip0_17_2">
<rect width="12" height="12" fill="white" transform="translate(9 9)"/>
</clipPath>
</defs>
</svg>
