<svg width="35" height="35" viewBox="0 0 35 35" fill="none" xmlns="http://www.w3.org/2000/svg">
<path d="M5.79978 14.35C5.85844 13.6191 6.19025 12.9371 6.72913 12.4398C7.26802 11.9426 7.97443 11.6665 8.70769 11.6667H26.2923C27.0255 11.6665 27.7319 11.9426 28.2708 12.4398C28.8097 12.9371 29.1415 13.6191 29.2002 14.35L30.3712 28.9333C30.4034 29.3346 30.3522 29.7383 30.2208 30.1188C30.0893 30.4994 29.8805 30.8486 29.6075 31.1445C29.3345 31.4404 29.0032 31.6766 28.6344 31.8382C28.2656 31.9997 27.8674 32.0832 27.4648 32.0833H7.53519C7.13258 32.0832 6.73435 31.9997 6.36558 31.8382C5.99681 31.6766 5.66548 31.4404 5.39246 31.1445C5.11943 30.8486 4.91063 30.4994 4.77919 30.1188C4.64775 29.7383 4.59652 29.3346 4.62873 28.9333L5.79978 14.35V14.35Z" stroke="#F8F8F8" stroke-width="2" stroke-linecap="round" stroke-linejoin="round"/>
<path d="M23.3333 16.0417V8.74999C23.3333 7.20289 22.7187 5.71916 21.6247 4.6252C20.5308 3.53124 19.0471 2.91666 17.5 2.91666C15.9529 2.91666 14.4691 3.53124 13.3752 4.6252C12.2812 5.71916 11.6666 7.20289 11.6666 8.74999V16.0417" stroke="#F8F8F8" stroke-width="2" stroke-linecap="round" stroke-linejoin="round"/>
</svg>
