<svg width="19" height="19" viewBox="0 0 19 19" fill="none" xmlns="http://www.w3.org/2000/svg">
<path d="M9.50002 8.31251C8.71714 8.31251 7.95183 8.08036 7.30089 7.64541C6.64995 7.21046 6.1426 6.59226 5.843 5.86897C5.5434 5.14568 5.46501 4.34979 5.61775 3.58195C5.77048 2.8141 6.14747 2.1088 6.70106 1.55521C7.25464 1.00163 7.95995 0.624637 8.72779 0.471904C9.49563 0.31917 10.2915 0.397559 11.0148 0.697155C11.7381 0.996752 12.3563 1.5041 12.7913 2.15505C13.2262 2.80599 13.4584 3.57129 13.4584 4.35418C13.4584 5.40399 13.0413 6.41081 12.299 7.15314C11.5567 7.89547 10.5498 8.31251 9.50002 8.31251ZM9.50002 1.97918C9.03029 1.97918 8.57111 2.11847 8.18054 2.37944C7.78998 2.64041 7.48557 3.01133 7.30581 3.44531C7.12605 3.87928 7.07902 4.35681 7.17066 4.81752C7.2623 5.27822 7.48849 5.70141 7.82064 6.03356C8.15279 6.36571 8.57598 6.5919 9.03668 6.68354C9.49739 6.77518 9.97492 6.72815 10.4089 6.54839C10.8429 6.36863 11.2138 6.06422 11.4748 5.67366C11.7357 5.28309 11.875 4.82391 11.875 4.35418C11.875 3.72429 11.6248 3.1202 11.1794 2.6748C10.734 2.2294 10.1299 1.97918 9.50002 1.97918Z" fill="white"/>
<path d="M16.625 18.6042H2.37498C2.16502 18.6042 1.96365 18.5208 1.81519 18.3723C1.66672 18.2238 1.58331 18.0225 1.58331 17.8125V15.4375C1.58331 13.7578 2.25057 12.1469 3.4383 10.9591C4.62603 9.77142 6.23694 9.10416 7.91665 9.10416H11.0833C12.763 9.10416 14.3739 9.77142 15.5617 10.9591C16.7494 12.1469 17.4166 13.7578 17.4166 15.4375V17.8125C17.4166 18.0225 17.3332 18.2238 17.1848 18.3723C17.0363 18.5208 16.8349 18.6042 16.625 18.6042ZM3.16665 17.0208H15.8333V15.4375C15.8333 14.1777 15.3329 12.9695 14.4421 12.0787C13.5513 11.1879 12.3431 10.6875 11.0833 10.6875H7.91665C6.65687 10.6875 5.44869 11.1879 4.55789 12.0787C3.66709 12.9695 3.16665 14.1777 3.16665 15.4375V17.0208Z" fill="white"/>
</svg>
